<?xml version="1.0" standalone="no"?>
<!DOCTYPE svg PUBLIC "-//W3C//DTD SVG 20010904//EN"
 "http://www.w3.org/TR/2001/REC-SVG-20010904/DTD/svg10.dtd">
<svg version="1.0" xmlns="http://www.w3.org/2000/svg"
 width="501.000000pt" height="175.000000pt" viewBox="0 0 501.000000 175.000000"
 preserveAspectRatio="xMidYMid meet">
<metadata>
Created by potrace 1.15, written by Peter Selinger 2001-2017
</metadata>
<g transform="translate(0.000000,175.000000) scale(0.100000,-0.100000)"
fill="#000000" stroke="none">
<path d="M703 1723 c-23 -4 -35 -34 -48 -115 -3 -21 -11 -38 -18 -38 -7 0 -38
-11 -71 -25 l-58 -24 -48 45 c-53 49 -64 52 -100 24 l-25 -19 18 -70 19 -71
-51 -58 -52 -59 -65 18 -65 18 -19 -32 c-27 -43 -26 -48 16 -88 55 -53 57 -60
37 -144 -16 -70 -19 -75 -47 -80 -17 -4 -48 -12 -68 -17 -36 -11 -38 -13 -38
-54 l0 -43 69 -22 c69 -22 70 -23 77 -63 3 -22 12 -56 19 -76 12 -34 11 -36
-31 -73 -24 -21 -46 -46 -49 -57 -6 -19 19 -80 33 -80 4 1 36 7 72 15 52 11
66 11 72 1 4 -7 15 -23 25 -35 l18 -22 59 60 58 59 -36 59 c-132 214 -110 452
58 618 67 66 159 116 244 134 301 63 582 -169 582 -478 0 -143 -42 -244 -139
-342 -77 -77 -146 -113 -257 -136 -67 -14 -90 -14 -154 -3 -122 20 -111 25
-142 -62 l-27 -77 38 -12 c39 -12 39 -12 49 -81 6 -39 12 -71 14 -73 2 -1 20
-5 41 -9 l38 -7 31 70 c29 67 33 71 63 71 18 0 52 2 76 6 l44 5 33 -55 c36
-61 39 -62 89 -44 l33 12 -6 71 -6 72 64 45 65 45 59 -33 59 -33 27 26 c16 15
28 32 28 39 0 7 -15 39 -34 71 -33 57 -34 58 -16 83 9 14 27 44 39 67 l21 43
69 0 69 0 10 42 c6 23 10 43 9 44 -1 1 -28 18 -59 38 l-58 37 0 79 0 79 58 32
c31 18 58 33 60 35 2 1 -2 20 -7 42 -12 44 -31 52 -117 52 -30 0 -44 4 -44 13
0 7 -15 38 -33 69 -33 53 -33 56 -17 79 9 13 27 41 39 61 l22 37 -29 32 -30
33 -62 -31 -62 -31 -64 45 -64 45 6 68 7 68 -31 16 c-17 9 -35 16 -41 16 -5 0
-29 -26 -53 -58 -38 -51 -46 -57 -68 -51 -14 4 -47 7 -73 8 -28 1 -49 6 -52
14 -46 133 -45 131 -102 120z"/>
<path d="M1900 1100 l0 -300 60 0 60 0 0 116 0 115 33 -3 c28 -3 40 -14 100
-103 37 -55 73 -106 81 -113 8 -9 34 -12 79 -10 l67 3 -86 125 c-59 85 -82
126 -73 129 31 10 88 79 99 120 15 57 -1 129 -38 164 -50 48 -89 57 -242 57
l-140 0 0 -300z m225 200 c48 -11 75 -41 75 -85 0 -62 -60 -105 -147 -105
l-33 0 0 100 0 100 33 0 c17 0 50 -5 72 -10z"/>
<path d="M2440 1100 l0 -300 195 0 195 0 0 45 0 45 -135 0 -135 0 0 85 0 85
105 0 105 0 0 45 0 45 -105 0 -105 0 0 80 0 80 135 0 135 0 0 45 0 45 -195 0
-195 0 0 -300z"/>
<path d="M2972 1100 l121 -301 61 3 60 3 118 290 c92 228 117 282 118 253 l0
-38 90 0 90 0 0 -255 0 -255 65 0 65 0 0 255 0 255 90 0 90 0 0 45 0 45 -311
-2 -312 -3 -59 -155 c-33 -85 -70 -183 -82 -216 l-22 -61 -78 206 c-43 113
-83 212 -89 219 -6 7 -34 12 -72 12 l-63 0 120 -300z"/>
<path d="M3990 1100 l0 -300 200 0 200 0 0 45 0 45 -135 0 -135 0 0 85 0 85
105 0 105 0 0 45 0 45 -105 0 -105 0 0 80 0 80 135 0 135 0 0 45 0 45 -200 0
-200 0 0 -300z"/>
<path d="M4470 1100 l0 -300 65 0 65 0 0 131 0 131 28 -7 c32 -8 27 -2 136
-142 l87 -113 75 0 74 0 -97 128 c-53 70 -108 139 -121 154 -18 19 -22 31 -15
40 5 7 52 67 103 133 52 66 98 126 103 133 7 9 -7 12 -64 12 l-74 0 -85 -112
c-99 -131 -115 -148 -135 -148 -13 0 -15 21 -15 130 l0 130 -65 0 -65 0 0
-300z"/>
<path d="M1810 495 c0 -10 11 -15 35 -15 l35 0 0 -95 c0 -95 0 -95 25 -95 25
0 25 0 25 95 l0 95 35 0 c24 0 35 5 35 15 0 12 -17 15 -95 15 -78 0 -95 -3
-95 -15z"/>
<path d="M2010 400 l0 -110 25 0 c23 0 25 3 25 50 l0 50 50 0 50 0 0 -50 c0
-47 2 -50 25 -50 l25 0 0 110 0 110 -25 0 c-23 0 -25 -4 -25 -45 l0 -45 -50 0
-50 0 0 45 c0 41 -2 45 -25 45 l-25 0 0 -110z"/>
<path d="M2340 400 c0 -103 1 -110 20 -110 17 0 19 8 22 72 l3 71 54 -71 c33
-43 62 -72 73 -72 16 0 18 11 18 110 0 103 -1 110 -20 110 -18 0 -20 -7 -20
-72 l0 -71 -56 71 c-35 45 -63 72 -75 72 -18 0 -19 -8 -19 -110z"/>
<path d="M2580 400 c0 -103 1 -110 20 -110 17 0 20 7 20 53 l1 52 47 -53 c36
-40 54 -52 75 -52 l29 0 -50 58 -50 57 46 50 c43 48 44 50 21 53 -17 3 -34 -8
-67 -42 -24 -25 -45 -46 -48 -46 -2 0 -4 20 -4 45 0 38 -3 45 -20 45 -19 0
-20 -7 -20 -110z"/>
<path d="M2870 400 l0 -110 25 0 c24 0 25 2 25 71 l0 71 56 -71 c34 -45 62
-71 75 -71 18 0 19 8 19 110 0 103 -1 110 -20 110 -17 0 -19 -8 -22 -72 l-3
-72 -55 72 c-39 52 -61 72 -77 72 -22 0 -23 -2 -23 -110z"/>
<path d="M3137 490 c-34 -27 -48 -79 -36 -125 14 -51 51 -75 115 -75 78 0 84
4 84 61 l0 49 -40 0 c-29 0 -40 -4 -40 -15 0 -9 9 -15 21 -15 15 0 20 -5 17
-22 -2 -18 -10 -24 -39 -26 -68 -6 -103 75 -57 133 20 26 24 27 80 21 47 -6
58 -4 58 7 0 20 -22 27 -84 27 -39 0 -61 -6 -79 -20z"/>
<path d="M3370 495 c0 -10 11 -15 35 -15 l35 0 0 -95 c0 -95 0 -95 25 -95 25
0 25 0 25 95 l0 95 35 0 c24 0 35 5 35 15 0 12 -17 15 -95 15 -78 0 -95 -3
-95 -15z"/>
<path d="M3579 481 c-25 -25 -29 -37 -29 -81 0 -44 4 -56 29 -81 25 -24 37
-29 81 -29 62 0 85 11 105 50 28 54 11 136 -34 160 -11 5 -43 10 -71 10 -44 0
-56 -5 -81 -29z m135 -23 c9 -12 16 -38 16 -58 0 -51 -24 -80 -64 -80 -44 0
-71 30 -71 80 0 50 27 80 71 80 23 0 38 -7 48 -22z"/>
<path d="M3841 496 c-46 -26 -62 -82 -40 -144 15 -44 49 -62 113 -62 80 0 86
4 86 61 l0 49 -40 0 c-29 0 -40 -4 -40 -15 0 -9 9 -15 21 -15 15 0 20 -5 17
-22 -4 -33 -68 -38 -97 -9 -29 29 -28 94 0 122 19 19 29 21 75 15 56 -6 79 5
45 23 -27 15 -111 13 -140 -3z"/>
<path d="M4030 400 l0 -110 75 0 c60 0 75 3 75 15 0 12 -13 15 -55 15 l-55 0
0 35 c0 35 0 35 45 35 33 0 45 4 45 15 0 11 -12 15 -45 15 -43 0 -45 1 -45 30
0 30 1 30 55 30 42 0 55 3 55 15 0 12 -15 15 -75 15 l-75 0 0 -110z"/>
<path d="M4390 400 c0 -103 1 -110 20 -110 17 0 20 7 20 50 l0 50 55 0 55 0 0
-50 c0 -43 3 -50 20 -50 19 0 20 7 20 110 0 103 -1 110 -20 110 -17 0 -20 -7
-20 -45 l0 -45 -55 0 -55 0 0 45 c0 38 -3 45 -20 45 -19 0 -20 -7 -20 -110z"/>
<path d="M4620 400 l0 -110 75 0 c60 0 75 3 75 15 0 11 -12 15 -50 15 l-50 0
0 35 c0 34 1 35 40 35 29 0 40 4 40 15 0 11 -11 15 -40 15 -38 0 -40 2 -40 30
0 29 1 30 50 30 38 0 50 4 50 15 0 12 -15 15 -75 15 l-75 0 0 -110z"/>
<path d="M4800 400 l0 -110 25 0 c23 0 25 4 25 48 l1 47 42 -48 c32 -36 49
-48 66 -45 22 3 22 3 -9 45 l-31 42 21 21 c11 11 20 33 20 48 0 45 -27 62 -98
62 l-62 0 0 -110z"/>
<path d="M212 307 l-52 -53 29 -28 29 -28 -23 -69 -24 -69 34 -26 34 -26 56
48 56 47 34 -16 c19 -9 36 -13 39 -9 5 9 56 143 56 148 0 2 -23 15 -51 29 -28
15 -70 44 -94 66 -23 21 -49 39 -56 39 -8 0 -38 -24 -67 -53z"/>
</g>
</svg>
